<?xml version="1.0" standalone="no"?>
<!DOCTYPE svg PUBLIC "-//W3C//DTD SVG 20010904//EN"
 "http://www.w3.org/TR/2001/REC-SVG-20010904/DTD/svg10.dtd">
<svg version="1.0" xmlns="http://www.w3.org/2000/svg"
 width="2048.000000pt" height="1536.000000pt" viewBox="0 0 2048.000000 1536.000000"
 preserveAspectRatio="xMidYMid meet">

<g transform="translate(0.000000,1536.000000) scale(0.100000,-0.100000)"
fill="#000000" stroke="none">
<path d="M15222 13891 c-17 -27 -50 -68 -74 -91 -68 -66 -240 -176 -393 -250
-293 -143 -535 -213 -1245 -361 -864 -180 -1288 -340 -1503 -568 -104 -110
-167 -260 -167 -394 1 -182 109 -396 302 -599 101 -107 214 -206 528 -467 310
-257 569 -504 653 -622 93 -132 134 -259 117 -365 -16 -99 -55 -164 -187 -310
-100 -111 -110 -133 -86 -183 20 -40 56 -58 96 -47 32 8 191 182 255 280 177
271 121 575 -168 903 -118 135 -255 256 -593 527 -516 413 -652 556 -717 752
-83 250 63 448 461 626 214 95 540 197 1087 338 532 137 799 225 1038 341 300
146 550 333 614 458 44 89 31 112 -18 32z"/>
<path d="M10675 13339 c-242 -51 -580 -177 -853 -319 -375 -195 -686 -459
-795 -675 -121 -241 -44 -466 218 -640 210 -140 492 -238 1259 -440 645 -169
1000 -288 1312 -441 136 -66 219 -120 268 -174 56 -62 46 -99 -46 -187 -123
-115 -369 -247 -1211 -648 -240 -114 -277 -140 -277 -196 0 -17 11 -41 28 -60
49 -55 64 -50 392 121 727 377 1035 559 1169 690 85 83 125 167 119 248 -6 78
-40 144 -118 223 -154 157 -439 297 -872 428 -214 64 -445 122 -879 220 -774
176 -1043 275 -1191 440 -67 75 -83 113 -83 201 0 118 54 216 205 374 208 217
482 406 855 587 271 131 532 226 675 245 28 4 50 10 50 15 0 15 -131 8 -225
-12z"/>
<path d="M10830 9144 c-824 -33 -1391 -118 -1975 -295 -508 -155 -871 -339
-1101 -562 -184 -176 -249 -305 -243 -475 4 -81 8 -96 46 -174 205 -412 957
-632 2618 -763 785 -61 1807 -92 2770 -81 902 9 1428 34 1955 92 465 51 919
169 999 260 36 41 45 71 38 124 -7 51 -38 93 -84 115 -34 17 -48 17 -143 7
-58 -7 -244 -23 -415 -37 -170 -14 -375 -32 -455 -40 -640 -64 -1627 -117
-2766 -146 -514 -13 -1852 -7 -2174 10 -1071 57 -1659 162 -1977 353 -78 46
-168 138 -188 193 -68 176 159 377 681 603 745 324 1575 492 2669 542 280 13
1172 13 1550 0 160 -6 427 -15 595 -20 168 -6 352 -17 410 -25 58 -8 168 -22
245 -31 77 -8 230 -27 340 -41 173 -21 703 -58 713 -49 1 2 -64 22 -145 45
-784 219 -2225 380 -3533 395 -190 2 -383 2 -430 0z"/>
<path d="M12530 8154 c-36 -2 -180 -8 -320 -14 -991 -42 -1841 -129 -2445
-251 -315 -63 -784 -192 -793 -218 -5 -15 10 -14 103 8 548 131 1178 199 2154
231 398 13 1761 13 2016 0 327 -17 828 -70 1065 -112 63 -11 141 -23 172 -25
51 -5 59 -3 82 20 47 47 28 114 -41 147 -198 93 -486 158 -868 196 -150 15
-939 28 -1125 18z"/>
<path d="M17474 8065 c-153 -34 -312 -108 -439 -203 -163 -122 -351 -341 -454
-527 -59 -106 -67 -125 -52 -125 6 0 37 39 69 88 161 239 365 439 555 545 258
145 538 167 753 61 180 -89 313 -282 358 -523 81 -428 -178 -961 -654 -1343
-210 -168 -449 -301 -825 -458 -121 -51 -236 -100 -256 -110 -55 -29 -73 -84
-44 -140 18 -35 43 -50 83 -50 68 0 656 271 847 391 534 334 882 787 991 1289
14 63 18 125 18 235 -1 129 -4 164 -27 250 -107 400 -392 637 -762 634 -55 -1
-127 -7 -161 -14z"/>
<path d="M17585 7510 c-245 -64 -531 -243 -742 -463 -79 -82 -121 -142 -108
-155 3 -3 20 11 37 32 51 62 195 183 307 258 263 176 597 296 677 244 50 -34
69 -136 43 -244 -17 -70 -90 -217 -150 -304 -183 -260 -541 -546 -1161 -927
-92 -57 -173 -110 -180 -118 -7 -9 -13 -33 -13 -55 0 -31 7 -45 28 -64 51 -43
69 -36 309 125 780 521 1144 894 1250 1280 16 58 19 96 16 172 -3 86 -7 102
-33 145 -56 90 -138 112 -280 74z"/>
<path d="M16220 6868 c-49 -194 -201 -528 -463 -1018 -282 -528 -454 -800
-699 -1108 l-100 -125 -65 7 c-36 4 -95 13 -132 21 -36 7 -84 16 -106 19 -22
2 -119 16 -215 30 -451 66 -708 80 -1285 72 -466 -6 -605 -12 -605 -26 0 -12
102 -19 491 -35 588 -24 842 -54 1466 -176 l313 -61 -30 -38 c-44 -55 -286
-287 -398 -381 -420 -352 -850 -605 -1252 -738 -468 -154 -1136 -226 -1632
-175 -490 49 -977 217 -1509 519 -584 332 -1045 725 -1394 1190 -199 266 -329
475 -531 859 -54 104 -111 201 -126 217 -55 60 -158 22 -158 -58 0 -57 269
-616 402 -836 107 -177 228 -350 353 -507 111 -139 424 -460 555 -567 565
-464 1257 -826 1879 -983 487 -123 1029 -133 1626 -30 523 90 935 251 1345
523 333 221 649 493 897 769 65 73 128 145 139 161 12 15 28 27 35 27 12 0
218 -66 489 -157 434 -145 901 -356 1136 -512 272 -181 391 -320 402 -474 4
-61 2 -73 -28 -133 -23 -47 -58 -92 -119 -153 -187 -187 -460 -334 -887 -477
-781 -261 -1659 -349 -3489 -348 -956 0 -1330 13 -2415 84 -1170 77 -1759 154
-2570 336 -576 129 -878 226 -1154 367 -242 125 -293 220 -194 367 79 119 234
234 566 420 193 108 212 125 212 190 0 39 -26 84 -57 101 -46 24 -86 15 -184
-41 -371 -212 -478 -286 -615 -424 -176 -177 -242 -349 -200 -516 29 -114 61
-167 165 -270 198 -197 518 -371 943 -511 422 -140 1111 -275 1728 -339 897
-92 2471 -141 3560 -110 1120 32 2027 105 2685 215 1242 208 2163 700 2235
1195 35 235 -136 505 -454 717 -306 205 -965 464 -1508 593 l-137 33 45 61
c78 107 229 337 303 461 152 255 480 937 614 1276 87 219 156 450 157 522 0
33 -19 17 -30 -25z"/>
<path d="M14765 1874 c-958 -205 -2047 -360 -2995 -426 -243 -17 -1504 -17
-1875 0 -1017 47 -1585 126 -2121 296 -156 48 -224 63 -224 48 0 -6 17 -16 38
-23 20 -6 102 -38 182 -70 472 -188 1069 -313 1905 -398 1055 -108 1988 -130
2840 -66 852 64 1830 204 2390 342 217 53 231 58 269 93 36 34 40 42 43 96 5
69 -16 111 -69 144 -48 29 -101 24 -383 -36z"/>
</g>
</svg>
